<svg height="64" viewBox="0 0 128 128" width="64" xmlns="http://www.w3.org/2000/svg" xmlns:xlink="http://www.w3.org/1999/xlink"><linearGradient id="a" gradientUnits="userSpaceOnUse" x1="0" x2="128" y1="128" y2="0"><stop offset="0" stop-color="green"/><stop offset="1" stop-color="#ffffff"/></linearGradient><path d="m106.14802 9.8174808c-.69945.05836-1.44764.3851432-2.03125.9687502l-6.312497 6.3125 13.937497 13.9375 6.34375-6.3125c1.16722-1.167213 1.31701-2.870496.34375-3.84375l-10.4375-10.4375c-.48663-.4866312-1.1443-.6833572-1.84375-.6250002zm-90.093747 8.8125002c-3.96276 0-7.1249997 3.162236-7.1249997 7.125v73.84375c0 1.773369.59737 2.347369 1.6249997 3.374999l13.90625 13.90625c1.05639 1.05639 1.88579 1.3125 3.25 1.3125h76.968747c3.96276 0 7.125-3.19348 7.125-7.15625v-76.062499l-8.21875 8.21875a2.8488206 2.8488206 0 0 1 -1.0625.6875 2.8488206 2.8488206 0 0 1 -.65625 1.03125l-4.531247 4.53125v14.5h-15.21875l-20.84375 8.5625c-.50376.206891-1.03178.396671-1.75.4375-.71822.04083-1.89183-.157309-2.71875-1.0625s-.90228-1.980261-.84375-2.65625.23289-1.18929.4375-1.6875l1.46875-3.59375h-34.4375v-34.46875h57.96875l2.53125-2.53125a2.8488206 2.8488206 0 0 1 1.0625-.6875 2.8488206 2.8488206 0 0 1 .65625-1l6.625-6.625zm80.03125.1875-8.4375 8.4375 13.937497 13.9375 8.4375-8.4375zm-10.15625 10.15625-15.59375 15.59375 13.96875 13.9375 15.59375-15.59375zm-17.34375 17.59375c-.32967.02101-.6214.329524-.78125.71875l-8.78125 21.375c-.54748 1.333046-.14826 1.754499 1.15625 1.21875l21.25-8.71875c.83734-.343888 1.12932-.933185.6875-1.375l-12.90625-12.90625c-.22309-.223089-.4272-.325107-.625-.3125zm-31.875 29.3125h42.9375c3.96276 0 7.15625 3.193486 7.15625 7.15625v20.374999c0 3.96276-3.19349 7.15625-7.15625 7.15625h-42.9375c-3.96276 0-7.125-3.19349-7.125-7.15625v-20.374999c0-3.962764 3.16224-7.15625 7.125-7.15625zm2.9375 2.84375v23.874999h15.09375v-23.874999z" fill="url(#a)"/></svg>